<?xml version="1.0" encoding="iso-8859-1"?>
<!-- Uploaded to: SVG Repo, www.svgrepo.com, Generator: SVG Repo Mixer Tools -->
<svg height="800px" width="800px" version="1.1" id="Layer_1" xmlns="http://www.w3.org/2000/svg" xmlns:xlink="http://www.w3.org/1999/xlink" 
	 viewBox="0 0 512 512" xml:space="preserve">
<path style="fill:#EE8700;" d="M156.98,0C86.328,0,28.849,57.479,28.849,128.132c0,62.689,45.263,114.969,104.818,125.968
	l0.037-23.753l0.039-24.058c-33.678-10.031-58.311-41.263-58.311-78.156c0.002-44.965,36.583-81.548,81.548-81.548
	s81.548,36.583,81.548,81.548c0,7.792-1.103,15.465-3.244,22.825l20.21,13.081l19.969,12.927
	c6.348-15.393,9.649-31.943,9.649-48.833C285.112,57.479,227.632,0,156.98,0z"/>
<path style="fill:#5286FA;" d="M472.517,304.523L169.82,108.579c-7.16-4.634-16.277-4.986-23.771-0.918l0,0
	c-7.494,4.068-12.166,11.905-12.18,20.432l-0.582,360.574c-0.016,9.895,6.221,18.718,15.551,22.007
	c2.537,0.894,5.149,1.325,7.736,1.325c6.932,0,13.668-3.101,18.176-8.722L285.705,364.92l0,0l176.472-17.668
	c9.845-0.986,17.993-8.084,20.319-17.699C484.823,319.937,480.822,309.901,472.517,304.523z"/>
<path style="fill:#424EDE;" d="M133.871,128.095l-0.582,360.574c-0.016,9.895,6.221,18.718,15.551,22.007
	c2.537,0.894,5.149,1.325,7.736,1.325c6.932,0,13.668-3.101,18.176-8.722l110.955-138.356L146.05,107.663
	C138.556,111.73,133.883,119.567,133.871,128.095z"/>
</svg>